#N canvas 100 100 800 600 12;
#X obj 50 150 cb4tech-parse;
#X text 50 20 cb4tech-parse - Parse les données des capteurs CB4Tech;
#X text 50 50 Entrée: liste de 30 bytes représentant la structure sensors_values_t;
#X text 50 80 Sortie (1 outlet): messages groupés par type de contrôleur;
#X obj 50 180 route encoder adc selector joystick drum button;
#X obj 50 210 unpack f f f;
#X obj 150 210 unpack f f;
#X obj 250 210 f;
#X obj 350 210 unpack f f f f;
#X obj 450 210 unpack f f f f f f;
#X obj 650 210 unpack f f;
#X text 50 250 encoder: encoder velocity absolute_encoder;
#X text 50 270 adc: adc0 adc1;
#X text 50 290 selector: valeur;
#X text 50 310 joystick: x y z bouton;
#X text 50 330 drum: drum1 drum2 continuous_force1 continuous_force2 absolute_force1 absolute_force2;
#X text 50 360 button: button1 button2;
#X obj 50 400 bng 15 250 50 0 empty empty empty 17 7 0 10 #fcfcfc #000000 #000000;
#X text 70 397 Bang pour afficher la taille attendue;
#X obj 50 430 print encoder;
#X obj 150 430 print adc;
#X obj 250 430 print selector;
#X obj 350 430 print joystick;
#X obj 450 430 print drum;
#X obj 650 430 print button;
#X connect 0 0 4 0;
#X connect 4 0 5 0;
#X connect 4 1 6 0;
#X connect 4 2 7 0;
#X connect 4 3 8 0;
#X connect 4 4 9 0;
#X connect 4 5 10 0;
#X connect 5 0 19 0;
#X connect 6 0 20 0;
#X connect 7 0 21 0;
#X connect 8 0 22 0;
#X connect 9 0 23 0;
#X connect 10 0 24 0;
#X connect 17 0 0 0;
